#N canvas 292 30 1145 711 10;
#X obj 126 350 soundfiler;
#N canvas 0 50 450 250 (subpatch) 0;
#X array \$1\$2-L 308736 float 2;
#X coords 0 1 308736 -1 200 140 1 0 0;
#X restore 502 119 graph;
#X text 9 11 arg 1: name of array for refencing with tabread~/tabread4~
(example: array-1);
#X obj 126 462 b;
#X text 165 461 convert this to a bang;
#X text 227 494 recall arg1 (\$1);
#X text 3 213 get name of array;
#X text 222 532 this is a command to normalize the array (\$1);
#X text 499 73 this is the array \, automatically named by the first
argument (look in properties for this object);
#X text 192 269 pack it together;
#X text 427 305 compose the request for soundfiler;
#X text 201 343 outputs length in samples when done loading \, we just
want done loading bang so...;
#X text 471 11 ***use this object with cg-looper***;
#X obj 126 127 loadbang;
#X obj 126 432 spigot 0;
#X text 265 397 call arg2 for nomarlize off/on;
#N canvas 0 50 450 250 (subpatch) 0;
#X array \$1\$2-R 308736 float 2;
#X coords 0 1 308736 -1 200 140 1 0 0;
#X restore 712 119 graph;
#X text 12 64 arg 3: normalize on:1 off:0;
#X obj 126 178 t b b, f 11;
#X obj 126 213 symbol \$1;
#X text 263 212 get .wav name in sounds folder;
#X text 12 44 arg 2: number;
#X obj 200 213 f \$2;
#X obj 231 397 f \$3;
#X obj 126 495 symbol \$1\$2;
#X msg 126 527 \; \$1-L normalize \; \$1-R normalize;
#X obj 126 270 pack s f s;
#X obj 302 182 symbol \$4;
#X obj 126 149 t b b b, f 29;
#X text 15 80 arg 4: file name;
#X msg 126 304 read -resize \$3 \$1\$2-L \$1\$2-R;
#X connect 0 0 14 0;
#X connect 3 0 24 0;
#X connect 13 0 28 0;
#X connect 14 0 3 0;
#X connect 18 0 19 0;
#X connect 18 1 22 0;
#X connect 19 0 26 0;
#X connect 22 0 26 1;
#X connect 23 0 14 1;
#X connect 24 0 25 0;
#X connect 26 0 30 0;
#X connect 27 0 26 2;
#X connect 28 0 18 0;
#X connect 28 1 23 0;
#X connect 28 2 27 0;
#X connect 30 0 0 0;
