#N canvas 4 23 1436 803 10;
#X obj 92 232 phasor~;
#X text 202 196 TAPE;
#X obj 617 88 r \$0-pitch-shift;
#X obj 617 152 t b f;
#X obj 617 268 phasor~;
#X obj 617 310 +~ 0.5;
#X obj 617 384 -~ 0.5;
#X obj 617 406 *~ 0.5;
#X obj 617 428 cos~;
#X obj 617 450 *~, f 8;
#X obj 617 332 wrap~;
#X obj 719 359 *~ 2205;
#X obj 719 411 tabread4~;
#X obj 791 377 r~ \$0-index;
#X obj 92 436 s~ \$0-index;
#X obj 450 314 +~ 0;
#X obj 392 350 -~ 0.5;
#X obj 392 372 *~ 0.5;
#X obj 392 394 cos~;
#X obj 450 336 *~ 2205;
#X obj 451 397 tabread4~;
#X obj 461 367 r~ \$0-index;
#X obj 432 443 *~;
#X obj 432 495 +~, f 22;
#X obj 155 -58 inlet;
#X obj 1018 -20 inlet;
#X obj 439 -3 s \$0-pointer;
#X obj 432 753 outlet~;
#X obj 432 733 hip~ 5;
#X obj 353 15 s \$0-speed;
#X text 1059 -19 0-1 floating point;
#X text 520 31 0/1 off/on;
#X text 199 -59 control arguments;
#X text 973 597 playhead 0-1;
#X obj 525 645 vline~;
#X obj 433 709 *~, f 8;
#X obj 525 597 r \$0-duck;
#X obj 1073 594 outlet sample size, f 12;
#X obj 525 667 *~;
#X obj 546 -10 switch~;
#X obj 647 -10 s \$0-decay;
#X text 495 -72 Time Compression Looper;
#X text 1197 590 get size of sample in ms;
#X obj 1189 545 s \$0-sample-length;
#X obj 1131 546 / 44.1;
#X obj 1131 572 s \$0-sample-length-ms;
#X obj 1073 522 t f f f, f 17;
#X obj 860 150 r \$0-pointer;
#X obj 860 309 list prepend set;
#X obj 860 331 route list;
#X obj 751 0 s \$0-pitch-shift;
#X obj 110 370 r \$0-sample-length;
#X obj 92 284 *~;
#X obj 92 306 +~;
#X obj 130 284 r \$0-chunk-size;
#X obj 130 306 r \$0-read;
#X obj 92 328 wrap~;
#X obj 92 394 *~;
#X obj 101 495 r \$0-chunk-size;
#X obj 101 623 /;
#X obj 115 531 r \$0-sample-length-ms;
#X obj 101 577 *, f 7;
#X obj 115 553 t b a;
#X obj 101 685 f;
#X obj 129 642 r \$0-speed;
#X obj 129 664 t b a;
#X obj 101 707 *, f 4;
#X obj 101 729 s \$0-playback;
#X obj 92 188 r \$0-playback;
#X msg 101 601 1000 \$1;
#X obj 535 139 -, f 5;
#X obj 617 216 * 20;
#X obj 617 174 +;
#X msg 535 111 1 \$1;
#X obj 535 88 r \$0-speed;
#X text 11 475 caluculate playback speed based on loop length;
#X obj 240 8 wrap;
#X obj 154 -32 route length read speed point switch decay pitch, f
100;
#X text 436 108 speed make up;
#X text 664 123 over all shift;
#X obj 112 256 s~ \$0-master-phase;
#X obj 848 565 r \$0-decay;
#N canvas 507 190 933 688 envelope 0;
#X obj 89 392 -~ 0.5;
#X obj 89 416 *~ 0.5;
#X obj 89 439 cos~;
#X obj 89 483 clip~ 0 1;
#X obj 88 595 *~;
#X obj 215 418 *~, f 8;
#X obj 217 500 clip~ 0 1;
#X obj 216 474 -~, f 13;
#X obj 215 440 +~ 1;
#X obj 233 294 unpack;
#X msg 233 271 -1 1;
#X msg 274 270 1 0;
#X obj 217 522 *~;
#X obj 214 354 *~;
#X obj 214 376 +~, f 6;
#X obj 398 177 t f f;
#X obj 398 199 *;
#X obj 303 86 moses 0.5, f 14;
#X obj 398 109 t f b, f 8;
#X obj 398 131 - 0.5;
#X obj 398 153 * 2;
#X obj 303 108 t f b, f 8;
#X msg 303 152 1 \$1;
#X obj 303 174 -;
#X obj 303 130 * 2;
#X obj 303 196 t f f;
#X obj 303 218 *;
#X text 308 14 envelope window with attack/decay one knob;
#X obj 303 64 inlet knob 0-1;
#X obj 90 80 inlet~ phasor;
#X obj 87 662 outlet~;
#X obj 88 617 *~ 1.25;
#X obj 88 639 clip~ 0 1;
#X obj 252 344 lop~ 100;
#X obj 233 316 lop~ 100;
#X obj 303 375 lop~ 100;
#X obj 303 289 * 4;
#X obj 398 271 * 4;
#X obj 88 461 *~ 300, f 11;
#X connect 0 0 1 0;
#X connect 1 0 2 0;
#X connect 2 0 38 0;
#X connect 3 0 4 0;
#X connect 4 0 31 0;
#X connect 5 0 8 0;
#X connect 6 0 12 0;
#X connect 6 0 12 1;
#X connect 7 0 6 0;
#X connect 8 0 7 0;
#X connect 9 0 34 0;
#X connect 9 1 33 0;
#X connect 10 0 9 0;
#X connect 11 0 9 0;
#X connect 12 0 4 1;
#X connect 13 0 14 0;
#X connect 14 0 5 0;
#X connect 15 0 16 0;
#X connect 15 1 16 1;
#X connect 16 0 37 0;
#X connect 17 0 21 0;
#X connect 17 1 18 0;
#X connect 18 0 19 0;
#X connect 18 1 11 0;
#X connect 19 0 20 0;
#X connect 20 0 15 0;
#X connect 21 0 24 0;
#X connect 21 1 10 0;
#X connect 22 0 23 0;
#X connect 23 0 25 0;
#X connect 24 0 22 0;
#X connect 25 0 26 0;
#X connect 25 1 26 1;
#X connect 26 0 36 0;
#X connect 28 0 17 0;
#X connect 29 0 0 0;
#X connect 29 0 13 0;
#X connect 31 0 32 0;
#X connect 32 0 30 0;
#X connect 33 0 14 1;
#X connect 34 0 13 1;
#X connect 35 0 5 1;
#X connect 35 0 7 1;
#X connect 36 0 35 0;
#X connect 37 0 35 0;
#X connect 38 0 3 0;
#X restore 774 589 pd envelope;
#X obj 432 567 *~;
#X obj 775 537 r~ \$0-master-phase;
#X obj 165 69 s \$0-duck;
#X msg 133 95 stop;
#X obj 70 43 t b f b, f 14;
#X obj 70 97 f;
#X obj 70 121 s \$0-chunk-size;
#X obj 335 69 s \$0-duck;
#X msg 303 95 stop;
#X obj 240 43 t b f b, f 14;
#X obj 240 97 f;
#X obj 240 121 s \$0-read;
#X obj 617 238 lop~ 500;
#X obj 703 227 r \$0-retrigger;
#X obj 136 212 r \$0-retrigger;
#X obj 717 756 outlet~;
#X text 779 757 outlet phase;
#X obj 717 729 r~ \$0-master-phase;
#X obj 1013 64 s \$0-retrigger;
#X msg 1013 39 0;
#X obj 1015 11 b;
#X obj 154 9 max 0.001;
#X obj 530 397 tabread4~;
#X obj 791 410 tabread4~;
#X obj 529 449 *~;
#X obj 768 447 *~;
#X obj 621 508 +~, f 23;
#X obj 621 570 *~;
#X obj 621 712 *~;
#X obj 622 753 outlet~;
#X obj 622 733 hip~ 5;
#X obj 898 244 list prepend set;
#X obj 898 266 route list;
#X obj 1073 440 t b a;
#X obj 860 172 t f f f, f 26;
#X obj 898 199 makefilename \$1%d-R;
#X obj 860 222 makefilename \$1%d-L;
#X obj 1140 469 makefilename \$1%d-R;
#X obj 1073 495 array size;
#X msg 525 622 0 10 \, 1 10 11;
#X obj 70 67 del 10.5;
#X obj 240 67 del 10.5;
#X connect 0 0 52 0;
#X connect 0 0 80 0;
#X connect 2 0 3 0;
#X connect 3 0 72 0;
#X connect 3 1 72 1;
#X connect 4 0 5 0;
#X connect 4 0 15 0;
#X connect 5 0 10 0;
#X connect 6 0 7 0;
#X connect 7 0 8 0;
#X connect 8 0 9 0;
#X connect 8 0 108 0;
#X connect 9 0 23 1;
#X connect 10 0 6 0;
#X connect 10 0 11 0;
#X connect 11 0 12 0;
#X connect 11 0 106 0;
#X connect 12 0 9 1;
#X connect 13 0 12 0;
#X connect 13 0 106 0;
#X connect 15 0 16 0;
#X connect 15 0 19 0;
#X connect 16 0 17 0;
#X connect 17 0 18 0;
#X connect 18 0 22 0;
#X connect 18 0 107 0;
#X connect 19 0 20 0;
#X connect 19 0 105 0;
#X connect 20 0 22 1;
#X connect 21 0 20 0;
#X connect 21 0 105 0;
#X connect 22 0 23 0;
#X connect 23 0 83 0;
#X connect 24 0 77 0;
#X connect 25 0 103 0;
#X connect 28 0 27 0;
#X connect 34 0 38 0;
#X connect 34 0 38 1;
#X connect 35 0 28 0;
#X connect 36 0 122 0;
#X connect 38 0 35 1;
#X connect 38 0 111 1;
#X connect 44 0 45 0;
#X connect 46 0 37 0;
#X connect 46 1 44 0;
#X connect 46 2 43 0;
#X connect 47 0 117 0;
#X connect 48 0 49 0;
#X connect 49 0 12 0;
#X connect 49 0 20 0;
#X connect 51 0 57 1;
#X connect 52 0 53 0;
#X connect 53 0 56 0;
#X connect 54 0 52 1;
#X connect 55 0 53 1;
#X connect 56 0 57 0;
#X connect 57 0 14 0;
#X connect 58 0 61 0;
#X connect 59 0 63 0;
#X connect 60 0 62 0;
#X connect 61 0 69 0;
#X connect 62 0 61 0;
#X connect 62 1 61 1;
#X connect 63 0 66 0;
#X connect 64 0 65 0;
#X connect 65 0 63 0;
#X connect 65 1 66 1;
#X connect 66 0 67 0;
#X connect 68 0 0 0;
#X connect 69 0 59 0;
#X connect 70 0 72 0;
#X connect 71 0 95 0;
#X connect 72 0 71 0;
#X connect 73 0 70 0;
#X connect 74 0 73 0;
#X connect 76 0 92 0;
#X connect 77 0 104 0;
#X connect 77 1 76 0;
#X connect 77 2 29 0;
#X connect 77 3 26 0;
#X connect 77 4 39 0;
#X connect 77 5 40 0;
#X connect 77 6 50 0;
#X connect 81 0 82 1;
#X connect 82 0 83 1;
#X connect 82 0 110 1;
#X connect 83 0 35 0;
#X connect 84 0 82 0;
#X connect 86 0 123 0;
#X connect 87 0 123 0;
#X connect 87 1 88 1;
#X connect 87 2 85 0;
#X connect 87 2 86 0;
#X connect 88 0 89 0;
#X connect 91 0 124 0;
#X connect 92 0 124 0;
#X connect 92 1 93 1;
#X connect 92 2 90 0;
#X connect 92 2 91 0;
#X connect 93 0 94 0;
#X connect 95 0 4 0;
#X connect 96 0 4 1;
#X connect 97 0 0 1;
#X connect 100 0 98 0;
#X connect 102 0 101 0;
#X connect 103 0 102 0;
#X connect 104 0 87 0;
#X connect 105 0 107 1;
#X connect 106 0 108 1;
#X connect 107 0 109 0;
#X connect 108 0 109 1;
#X connect 109 0 110 0;
#X connect 110 0 111 0;
#X connect 111 0 113 0;
#X connect 113 0 112 0;
#X connect 114 0 115 0;
#X connect 115 0 105 0;
#X connect 115 0 106 0;
#X connect 116 0 121 0;
#X connect 116 1 120 0;
#X connect 117 0 119 0;
#X connect 117 1 118 0;
#X connect 117 2 116 0;
#X connect 118 0 114 0;
#X connect 119 0 48 0;
#X connect 120 0 121 1;
#X connect 121 0 46 0;
#X connect 122 0 34 0;
#X connect 123 0 88 0;
#X connect 124 0 93 0;
