#N canvas 273 107 1010 697 10;
#X obj 15 143 s \$0-2-looper;
#X obj 58 475 r \$0-2-looper;
#X obj 409 46 unpack, f 7;
#X obj 409 22 inlet;
#X obj 409 68 swap, f 7;
#X obj 15 45 loadbang;
#X obj 455 366 s \$0-2-looper;
#X msg 455 343 read \$1;
#X obj 634 348 s \$0-2-looper;
#X msg 634 325 length \$1;
#X obj 276 516 vline~;
#X obj 175 473 r \$0-2-phase;
#X msg 13 211 decay \$1;
#X obj 13 233 s \$0-2-looper;
#X text 701 279 (size);
#X text 554 369 send as in and out points;
#X obj 455 200 s \$0-2-looper;
#X obj 276 493 r \$0-2-vline;
#X obj 276 540 *~;
#X msg 815 334 pitch \$1;
#X obj 815 356 s \$0-2-looper;
#X obj 634 278 max 0.001;
#X obj 409 454 sel 0, f 24;
#X obj 409 597 s \$0-2-vline;
#X obj 550 508 / 127;
#X obj 596 585 s \$0-2-phase;
#X obj 550 632 s \$0-2-vline;
#X obj 550 530 sqrt;
#X obj 596 542 v \$0-v;
#X msg 409 574 0 50;
#X msg 550 606 \$1 9;
#X msg 15 97 switch 1;
#X obj 58 708 throw~ looper-busL;
#X obj 138 728 throw~ looper-busR;
#X obj 111 261 r looper-voice-sum;
#X obj 154 50 r looper-speed;
#X msg 455 177 point \$1;
#X obj 13 189 r looper-decay;
#X msg 139 100 speed \$1;
#X obj 58 503 cg-springer-2 looper;
#X msg 164 333 100 \$1;
#X obj 164 355 -;
#X obj 111 283 moses 70;
#X obj 164 307 - 70;
#X msg 111 305 100;
#X obj 168 393 / 100;
#X obj 164 423 lop~ 10;
#X obj 221 363 r looper-dynamic-ramp;
#X obj 651 74 inlet kill;
#X obj 550 484 t a b b, f 16;
#X obj 643 507 s \$0-trigger;
#X obj 139 30 r \$0-trigger;
#X obj 139 76 f;
#X obj 455 274 r \$0-trigger;
#X obj 455 320 f;
#X obj 470 294 r looper-in;
#X obj 634 205 r \$0-trigger;
#X obj 634 251 f;
#X obj 649 225 r looper-out;
#X obj 815 258 r \$0-trigger;
#X obj 815 304 f;
#X obj 830 278 r looper-pitch;
#X obj 58 650 e_circlepan;
#X obj 58 526 *~ 0.707;
#X obj 120 526 *~ 0.707;
#X obj 58 606 *~ 1;
#X obj 58 626 *~, f 7;
#X obj 198 614 phasor~ 0.1;
#X obj 198 587 r phaser-speed;
#X connect 1 0 39 0;
#X connect 2 0 4 0;
#X connect 2 1 4 1;
#X connect 3 0 2 0;
#X connect 4 0 22 0;
#X connect 4 1 36 0;
#X connect 5 0 31 0;
#X connect 7 0 6 0;
#X connect 9 0 8 0;
#X connect 10 0 18 0;
#X connect 10 0 18 1;
#X connect 11 0 39 1;
#X connect 12 0 13 0;
#X connect 17 0 10 0;
#X connect 18 0 66 1;
#X connect 19 0 20 0;
#X connect 21 0 9 0;
#X connect 22 0 29 0;
#X connect 22 1 49 0;
#X connect 24 0 27 0;
#X connect 27 0 30 0;
#X connect 28 0 25 0;
#X connect 29 0 23 0;
#X connect 30 0 26 0;
#X connect 31 0 0 0;
#X connect 34 0 42 0;
#X connect 35 0 52 1;
#X connect 36 0 16 0;
#X connect 37 0 12 0;
#X connect 38 0 0 0;
#X connect 39 0 63 0;
#X connect 39 1 64 0;
#X connect 40 0 41 0;
#X connect 41 0 45 0;
#X connect 42 0 44 0;
#X connect 42 1 43 0;
#X connect 43 0 40 0;
#X connect 44 0 45 0;
#X connect 45 0 46 0;
#X connect 47 0 46 1;
#X connect 48 0 29 0;
#X connect 49 0 24 0;
#X connect 49 1 28 0;
#X connect 49 2 50 0;
#X connect 51 0 52 0;
#X connect 52 0 38 0;
#X connect 53 0 54 0;
#X connect 54 0 7 0;
#X connect 55 0 54 1;
#X connect 56 0 57 0;
#X connect 57 0 21 0;
#X connect 58 0 57 1;
#X connect 59 0 60 0;
#X connect 60 0 19 0;
#X connect 61 0 60 1;
#X connect 62 0 32 0;
#X connect 62 1 33 0;
#X connect 63 0 65 0;
#X connect 64 0 65 0;
#X connect 65 0 66 0;
#X connect 66 0 62 0;
#X connect 67 0 62 1;
#X connect 68 0 67 0;
