#N canvas 80 66 1208 620 10;
#N canvas 352 201 669 361 load-arrays 0;
#X obj 316 28 cg-load-array-2 looper 13 1;
#X obj 316 48 cg-load-array-2 looper 14 1;
#X obj 316 68 cg-load-array-2 looper 15 1;
#X obj 316 88 cg-load-array-2 looper 16 1;
#X obj 316 108 cg-load-array-2 looper 17 1;
#X obj 316 128 cg-load-array-2 looper 18 1;
#X obj 316 148 cg-load-array-2 looper 19 1;
#X obj 316 167 cg-load-array-2 looper 20 1;
#X obj 316 188 cg-load-array-2 looper 21 1;
#X obj 316 210 cg-load-array-2 looper 22 1;
#X obj 316 234 cg-load-array-2 looper 23 1;
#X obj 316 258 cg-load-array-2 looper 24 1;
#X obj 16 28 cg-load-array-2 looper 1 1 notifications;
#X obj 16 48 cg-load-array-2 looper 2 1 notifications;
#X obj 16 68 cg-load-array-2 looper 3 1 notifications;
#X obj 16 88 cg-load-array-2 looper 4 1 notifications;
#X obj 16 108 cg-load-array-2 looper 5 1 notifications;
#X obj 16 128 cg-load-array-2 looper 6 1 notifications;
#X obj 16 148 cg-load-array-2 looper 7 1 notifications;
#X obj 16 167 cg-load-array-2 looper 8 1 notifications;
#X obj 16 188 cg-load-array-2 looper 9 1 notifications;
#X obj 16 210 cg-load-array-2 looper 10 1 notifications;
#X obj 16 234 cg-load-array-2 looper 11 1 notifications;
#X obj 16 258 cg-load-array-2 looper 12 1 notifications;
#X restore 17 24 pd load-arrays;
#X obj 17 190 throw~ outL;
#X obj 122 190 throw~ outR;
#X obj 17 97 r looper-notes;
#N canvas 345 162 645 545 the-synth 0;
#X obj 29 433 outlet~;
#X obj 32 14 inlet;
#X obj 32 283 pack 0 0 0;
#X obj 32 305 route 1 2 3 4, f 64;
#X obj 219 433 outlet~;
#X obj 218 403 catch~ looper-busR;
#X obj 29 404 catch~ looper-busL;
#X obj 334 225 bng 15 250 50 0 empty empty empty 17 7 0 10 -262144
-1 -1;
#X obj 32 334 looper-voice;
#X obj 143 334 looper-voice;
#X obj 254 336 looper-voice;
#X obj 365 334 looper-voice;
#X obj 32 261 poly 4 0, f 10;
#X obj 381 201 r kill;
#X connect 1 0 12 0;
#X connect 2 0 3 0;
#X connect 3 0 8 0;
#X connect 3 1 9 0;
#X connect 3 2 10 0;
#X connect 3 3 11 0;
#X connect 5 0 4 0;
#X connect 6 0 0 0;
#X connect 7 0 8 1;
#X connect 7 0 9 1;
#X connect 7 0 10 1;
#X connect 7 0 11 1;
#X connect 12 0 2 0;
#X connect 12 1 2 1;
#X connect 12 2 2 2;
#X connect 13 0 7 0;
#X restore 17 138 pd the-synth - - -;
#X text 112 25 loads sound files;
#N canvas 350 216 651 463 master-vol 0;
#X obj 106 135 vsl 25 128 0 127 0 0 empty empty Volume 0 -9 0 10 -262144
-1 -1 4500 1;
#X obj 106 271 / 127;
#X obj 106 292 t f f;
#X obj 106 313 *;
#X obj 106 336 lop~ 5;
#X obj 106 90 loadbang;
#X obj 360 266 dac~ 1 2, f 18;
#X obj 360 210 catch~ outL;
#X obj 465 210 catch~ outR;
#X obj 360 231 *~;
#X obj 465 231 *~;
#X obj 106 357 s~ master-vol;
#X obj 407 178 r~ master-vol;
#X msg 106 111 45;
#X obj 471 345 writesf~ 2;
#X msg 511 285 open -bytes 3 \$1;
#X obj 512 252 savepanel;
#X obj 208 106 bng 20 250 50 0 empty empty empty 17 7 0 10 -262130
-1 -1;
#X text 144 123 1.click to name soundfile;
#X obj 388 59 t b b;
#X msg 440 64 stop;
#X msg 365 141 start;
#X obj 205 157 bng 20 250 50 0 empty empty empty 17 7 0 10 -204786
-1 -1;
#X obj 205 247 bng 20 250 50 0 empty empty empty 17 7 0 10 -261234
-1 -1;
#X text 161 175 2 click to record;
#X text 151 269 3 click to end record;
#X text 182 283 and save;
#X text 167 135 ex: name.wav;
#X obj 168 208 tgl 15 0 empty empty empty 17 7 0 10 -262144 -1 -1 0
1;
#X text 186 211 (its recording!);
#X msg 319 179 1;
#X msg 327 220 0;
#X connect 0 0 1 0;
#X connect 1 0 2 0;
#X connect 2 0 3 0;
#X connect 2 1 3 1;
#X connect 3 0 4 0;
#X connect 4 0 11 0;
#X connect 5 0 13 0;
#X connect 7 0 9 0;
#X connect 8 0 10 0;
#X connect 9 0 6 0;
#X connect 9 0 14 0;
#X connect 10 0 6 1;
#X connect 10 0 14 1;
#X connect 12 0 9 1;
#X connect 12 0 10 1;
#X connect 13 0 0 0;
#X connect 15 0 14 0;
#X connect 16 0 15 0;
#X connect 17 0 19 0;
#X connect 19 0 16 0;
#X connect 19 1 20 0;
#X connect 19 1 31 0;
#X connect 20 0 14 0;
#X connect 21 0 14 0;
#X connect 22 0 21 0;
#X connect 22 0 30 0;
#X connect 23 0 20 0;
#X connect 23 0 31 0;
#X connect 30 0 28 0;
#X connect 31 0 28 0;
#X coords 0 -1 1 1 200 200 1 100 100;
#X restore 41 322 pd master-vol;
#X obj 357 515 s looper-notes;
#X obj 607 308 s looper-speed;
#X obj 508 308 s looper-decay;
#X obj 507 170 vsl 25 128 0 1 0 0 empty empty Decay 0 -9 0 10 -262144
-1 -1 6350 1;
#X obj 608 170 vsl 25 128 0 1 0 0 empty empty Speed 0 -9 0 10 -262144
-1 -1 3800 1;
#X obj 829 411 s looper-in;
#X obj 909 412 s looper-out;
#X obj 701 310 s looper-pitch;
#X obj 701 166 vsl 25 128 -1 1 0 0 empty empty Pitch 0 -9 0 10 -262144
-1 -1 6350 1;
#X obj 828 251 vsl 25 128 0 1 0 0 empty empty In 0 -9 0 10 -262144
-1 -1 0 1;
#X obj 886 267 vsl 25 128 0 1 0 0 empty empty Out 0 -9 0 10 -262144
-1 -1 2325 1;
#X obj 354 371 tgl 15 0 empty empty empty 17 7 0 10 -262144 -1 -1 0
1;
#X text 375 372 click to loop;
#X obj 354 391 sel 0 1;
#X msg 387 415 100;
#X msg 353 418 0;
#X obj 357 459 list prepend;
#X obj 357 480 list trim;
#X floatatom 517 457 5 0 0 0 - - -;
#X msg 436 403 1;
#X msg 465 402 2;
#X msg 496 404 3;
#X msg 525 403 4;
#X obj 533 102 loadbang;
#X obj 828 160 loadbang;
#X msg 828 201 0;
#N canvas 0 23 450 300 metro-stuff 0;
#N canvas 297 143 560 430 metro 0;
#X obj 105 11 inlet;
#X text 150 12 BPM;
#X obj 48 150 metro, f 10;
#X obj 105 98 / 360;
#X obj 48 68 loadbang;
#X obj 115 200 + 1;
#X obj 48 245 % 360;
#X obj 48 197 f 0, f 8;
#X msg 76 111 0;
#X obj 48 218 t f f;
#X obj 48 266 s main-metro;
#X obj 105 77 expr 60000 / $f1;
#X obj 31 14 inlet;
#X connect 0 0 11 0;
#X connect 2 0 7 0;
#X connect 3 0 2 1;
#X connect 4 0 8 0;
#X connect 5 0 7 1;
#X connect 6 0 10 0;
#X connect 7 0 9 0;
#X connect 8 0 7 1;
#X connect 9 0 6 0;
#X connect 9 1 5 0;
#X connect 11 0 3 0;
#X connect 12 0 2 0;
#X restore 111 146 pd metro;
#X floatatom 156 120 5 0 0 0 - - -;
#X msg 211 90 \; pd dsp 1;
#X obj 211 67 loadbang;
#X obj 156 72 loadbang;
#X msg 156 93 120;
#X obj 111 117 tgl 15 0 empty empty empty 17 7 0 10 -262144 -1 -1 0
1;
#X msg 297 83 \; pd dsp 0;
#X connect 1 0 0 1;
#X connect 3 0 2 0;
#X connect 4 0 5 0;
#X connect 5 0 1 0;
#X connect 6 0 0 0;
#X restore 352 57 pd metro-stuff;
#X obj 257 243 s kill;
#X obj 257 219 bng 15 250 50 0 empty empty empty 17 7 0 10 -262144
-1 -1;
#X text 276 220 stop notes;
#X text 764 114 fool around with these bars;
#X text 497 539 click than type in a number;
#X msg 533 123 0.5;
#X msg 879 204 0.75;
#X text 553 455 pick a number thats a sample 1-12;
#X msg 557 403 5;
#X msg 586 402 6;
#X msg 617 404 7;
#X msg 646 403 8;
#X msg 677 402 9;
#X msg 706 401 10;
#X msg 737 403 11;
#X msg 766 402 12;
#X msg 697 119 0;
#X text 642 192 -1 1;
#X msg 584 126 1;
#X text 644 33 Idea: generate 6 new parameters each trigger \, play
it out \, kill it and then another \, kind of like the mri.;
#X connect 3 0 4 0;
#X connect 4 0 1 0;
#X connect 4 1 2 0;
#X connect 10 0 9 0;
#X connect 11 0 8 0;
#X connect 15 0 14 0;
#X connect 16 0 12 0;
#X connect 17 0 13 0;
#X connect 18 0 20 0;
#X connect 20 0 22 0;
#X connect 20 1 21 0;
#X connect 21 0 23 0;
#X connect 22 0 23 0;
#X connect 23 0 24 0;
#X connect 24 0 7 0;
#X connect 25 0 23 1;
#X connect 26 0 25 0;
#X connect 27 0 25 0;
#X connect 28 0 25 0;
#X connect 29 0 25 0;
#X connect 30 0 39 0;
#X connect 30 0 52 0;
#X connect 30 0 50 0;
#X connect 31 0 32 0;
#X connect 31 0 40 0;
#X connect 32 0 16 0;
#X connect 35 0 34 0;
#X connect 39 0 10 0;
#X connect 40 0 17 0;
#X connect 42 0 25 0;
#X connect 43 0 25 0;
#X connect 44 0 25 0;
#X connect 45 0 25 0;
#X connect 46 0 25 0;
#X connect 47 0 25 0;
#X connect 48 0 25 0;
#X connect 49 0 25 0;
#X connect 50 0 15 0;
#X connect 52 0 11 0;
