#N canvas 183 219 895 562 10;
#N canvas 352 201 450 300 load-arrays 1;
#X obj 16 258 cg-load-array-2 looper 12 1;
#X obj 16 28 cg-load-array-2 looper 1 1;
#X obj 16 68 cg-load-array-2 looper 3 1;
#X obj 16 234 cg-load-array-2 looper 11 1;
#X obj 16 48 cg-load-array-2 looper 2 1;
#X obj 16 88 cg-load-array-2 looper 4 1;
#X obj 16 108 cg-load-array-2 looper 5 1;
#X obj 16 128 cg-load-array-2 looper 6 1;
#X obj 16 148 cg-load-array-2 looper 7 1;
#X obj 16 167 cg-load-array-2 looper 8 1;
#X obj 16 188 cg-load-array-2 looper 9 1;
#X obj 16 210 cg-load-array-2 looper 10 1;
#X obj 196 28 cg-load-array-2 looper 13 1;
#X obj 196 48 cg-load-array-2 looper 14 1;
#X obj 196 68 cg-load-array-2 looper 15 1;
#X obj 196 88 cg-load-array-2 looper 16 1;
#X obj 196 108 cg-load-array-2 looper 17 1;
#X obj 196 128 cg-load-array-2 looper 18 1;
#X obj 196 148 cg-load-array-2 looper 19 1;
#X obj 196 167 cg-load-array-2 looper 20 1;
#X obj 196 188 cg-load-array-2 looper 21 1;
#X obj 196 210 cg-load-array-2 looper 22 1;
#X obj 196 234 cg-load-array-2 looper 23 1;
#X obj 196 258 cg-load-array-2 looper 24 1;
#X restore 17 24 pd load-arrays;
#X obj 17 190 throw~ outL;
#X obj 122 190 throw~ outR;
#X obj 17 97 r looper-notes;
#N canvas 345 162 645 545 the-synth 0;
#X obj 29 433 outlet~;
#X obj 32 14 inlet;
#X obj 32 261 poly 4 1, f 10;
#X obj 32 283 pack 0 0 0;
#X obj 32 305 route 1 2 3 4, f 64;
#X obj 219 433 outlet~;
#X obj 218 403 catch~ looper-busR;
#X obj 29 404 catch~ looper-busL;
#X obj 334 225 bng 15 250 50 0 empty empty empty 17 7 0 10 -262144
-1 -1;
#X obj 32 334 looper-voice;
#X obj 143 334 looper-voice;
#X obj 254 336 looper-voice;
#X obj 365 334 looper-voice;
#X connect 1 0 2 0;
#X connect 2 0 3 0;
#X connect 2 1 3 1;
#X connect 2 2 3 2;
#X connect 3 0 4 0;
#X connect 4 0 9 0;
#X connect 4 1 10 0;
#X connect 4 2 11 0;
#X connect 4 3 12 0;
#X connect 6 0 5 0;
#X connect 7 0 0 0;
#X connect 8 0 9 1;
#X connect 8 0 10 1;
#X connect 8 0 11 1;
#X connect 8 0 12 1;
#X restore 17 138 pd the-synth - - -;
#X text 112 25 loads sound files;
#N canvas 297 143 560 430 metro 0;
#X obj 105 11 inlet;
#X text 150 12 BPM;
#X obj 48 150 metro, f 10;
#X obj 105 98 / 360;
#X obj 48 68 loadbang;
#X obj 115 200 + 1;
#X obj 48 245 % 360;
#X obj 48 197 f 0, f 8;
#X msg 76 111 0;
#X obj 48 218 t f f;
#X obj 48 266 s main-metro;
#X obj 105 77 expr 60000 / $f1;
#X obj 31 14 inlet;
#X connect 0 0 11 0;
#X connect 2 0 7 0;
#X connect 3 0 2 1;
#X connect 4 0 8 0;
#X connect 5 0 7 1;
#X connect 6 0 10 0;
#X connect 7 0 9 0;
#X connect 8 0 7 1;
#X connect 9 0 6 0;
#X connect 9 1 5 0;
#X connect 11 0 3 0;
#X connect 12 0 2 0;
#X restore 329 111 pd metro;
#X floatatom 374 85 5 0 0 0 - - -;
#X msg 429 55 \; pd dsp 1;
#X obj 429 32 loadbang;
#X obj 374 37 loadbang;
#X msg 374 58 120;
#N canvas 0 23 651 463 master-vol 0;
#X obj 106 135 vsl 25 128 0 127 0 0 empty empty Volume 0 -9 0 10 -262144
-1 -1 100 1;
#X obj 106 271 / 127;
#X obj 106 292 t f f;
#X obj 106 313 *;
#X obj 106 336 lop~ 5;
#X obj 106 90 loadbang;
#X msg 106 111 1;
#X obj 360 266 dac~ 1 2, f 18;
#X obj 360 210 catch~ outL;
#X obj 465 210 catch~ outR;
#X obj 360 231 *~;
#X obj 465 231 *~;
#X obj 106 357 s~ master-vol;
#X obj 407 178 r~ master-vol;
#X connect 0 0 1 0;
#X connect 1 0 2 0;
#X connect 2 0 3 0;
#X connect 2 1 3 1;
#X connect 3 0 4 0;
#X connect 4 0 12 0;
#X connect 5 0 6 0;
#X connect 6 0 0 0;
#X connect 8 0 10 0;
#X connect 9 0 11 0;
#X connect 10 0 7 0;
#X connect 11 0 7 1;
#X connect 13 0 10 1;
#X connect 13 0 11 1;
#X coords 0 -1 1 1 200 200 1 100 100;
#X restore 95 317 pd master-vol;
#X obj 331 76 tgl 15 0 empty empty empty 17 7 0 10 -262144 -1 -1 0
1;
#X msg 515 48 \; pd dsp 0;
#X connect 3 0 4 0;
#X connect 4 0 1 0;
#X connect 4 1 2 0;
#X connect 7 0 6 1;
#X connect 9 0 8 0;
#X connect 10 0 11 0;
#X connect 11 0 7 0;
#X connect 13 0 6 0;
